<svg xmlns="http://www.w3.org/2000/svg" version="1.1" xmlns:xlink="http://www.w3.org/1999/xlink" xmlns:svgjs="http://svgjs.dev/svgjs" width="128" height="128" viewBox="0 0 128 128"><g transform="matrix(0.8046875,0,0,0.8046875,12.761036121710184,26.20906620059806)"><svg viewBox="0 0 95 70" data-background-color="#ffffff" preserveAspectRatio="xMidYMid meet" height="94" width="128" xmlns="http://www.w3.org/2000/svg" xmlns:xlink="http://www.w3.org/1999/xlink"><g id="tight-bounds" transform="matrix(1,0,0,1,-0.24050188108978432,-0.027187890658808556)"><svg viewBox="0 0 95.481 70.05437578131763" height="70.05437578131763" width="95.481"><g><svg viewBox="0 0 95.481 70.05437578131763" height="70.05437578131763" width="95.481"><g><svg viewBox="0 0 95.481 70.05437578131763" height="70.05437578131763" width="95.481"><g id="textblocktransform"><svg viewBox="0 0 95.481 70.05437578131763" height="70.05437578131763" width="95.481" id="textblock"><g><svg viewBox="0 0 95.481 70.05437578131763" height="70.05437578131763" width="95.481"><g><svg viewBox="0 0 95.481 70.05437578131763" height="70.05437578131763" width="95.481"><g><svg xmlns="http://www.w3.org/2000/svg" xmlns:xlink="http://www.w3.org/1999/xlink" version="1.0" x="0" y="0" viewBox="13.200200099999984 23.1665 73.59959690000001 53.99999810000001" enable-background="new 0 0 100 100" xml:space="preserve" height="70.05437578131763" width="95.481" class="icon-icon-0" data-fill-palette-color="accent" id="icon-0"><g fill="#da9323" data-fill-palette-color="accent"><g fill="#da9323" data-fill-palette-color="accent"><path d="M85.6 28.167h-4.8c-0.033 0-0.061 0.016-0.094 0.019v-3.819c0-0.663-0.537-1.2-1.2-1.2-18.494 0-27.115 4.129-29.506 5.528-2.391-1.399-11.012-5.529-29.506-5.528-0.663 0-1.2 0.537-1.2 1.2v3.819c-0.033-0.003-0.06-0.019-0.094-0.019h-4.8c-0.663 0-1.2 0.537-1.2 1.2v46.6c0 0.663 0.537 1.2 1.2 1.199h21.2c0.663 0 1.2-0.537 1.2-1.199 0-0.663-0.537-1.2-1.2-1.2H15.6V30.567h3.6c0.033 0 0.061-0.016 0.094-0.019v38.471c0 0.663 0.537 1.2 1.2 1.2 20.808 0 28.675 5.429 28.801 5.518 0.041 0.029 0.087 0.042 0.129 0.066 0.023 0.013 0.043 0.03 0.067 0.041 0.029 0.014 0.057 0.026 0.088 0.037 0.137 0.052 0.278 0.085 0.42 0.085l0 0c0 0 0 0 0.001 0 0.014 0 0.026-0.008 0.04-0.008 0.128-0.004 0.254-0.031 0.377-0.076 0.029-0.011 0.057-0.02 0.084-0.033 0.031-0.014 0.056-0.035 0.086-0.052 0.039-0.022 0.081-0.033 0.117-0.059 0.077-0.055 7.928-5.519 28.802-5.519 0.663 0 1.2-0.537 1.2-1.2V30.548c0.033 0.003 0.06 0.019 0.094 0.019h3.6v44.2H62c-0.663 0-1.2 0.537-1.2 1.199 0 0.663 0.537 1.2 1.2 1.2h23.6c0.663 0 1.2-0.537 1.2-1.2V29.367C86.8 28.704 86.263 28.167 85.6 28.167zM21.694 25.572c17.172 0.176 25.156 4.082 27.106 5.208v41.927c-3.418-1.685-11.697-4.731-27.106-4.882V25.572zM78.306 67.825c-15.409 0.151-23.688 3.197-27.106 4.882V30.775c1.936-1.132 9.837-5.029 27.106-5.203V67.825z" fill="#da9323" data-fill-palette-color="accent"></path><path d="M28.173 36.586c5.667 0.406 10.675 1.271 14.884 2.571 0.118 0.036 0.237 0.054 0.355 0.054 0.512 0 0.987-0.331 1.146-0.847 0.196-0.633-0.159-1.305-0.793-1.501-4.384-1.354-9.573-2.253-15.421-2.671-0.653-0.039-1.236 0.451-1.283 1.111C27.014 35.964 27.511 36.538 28.173 36.586z" fill="#da9323" data-fill-palette-color="accent"></path><path d="M43.765 44.333c-4.384-1.354-9.573-2.253-15.421-2.672-0.653-0.035-1.236 0.451-1.283 1.112-0.048 0.661 0.45 1.235 1.112 1.282 5.667 0.406 10.675 1.271 14.884 2.571 0.118 0.036 0.237 0.054 0.355 0.054 0.512 0 0.987-0.331 1.146-0.846C44.753 45.201 44.398 44.529 43.765 44.333z" fill="#da9323" data-fill-palette-color="accent"></path><path d="M43.765 51.802c-4.384-1.353-9.573-2.253-15.421-2.671-0.653-0.032-1.236 0.45-1.283 1.111-0.048 0.661 0.45 1.235 1.112 1.283 5.667 0.406 10.675 1.271 14.884 2.571 0.118 0.036 0.237 0.054 0.355 0.054 0.512 0 0.987-0.331 1.146-0.847C44.753 52.67 44.398 51.998 43.765 51.802z" fill="#da9323" data-fill-palette-color="accent"></path><path d="M43.765 59.272c-4.384-1.353-9.573-2.253-15.421-2.672-0.653-0.041-1.236 0.451-1.283 1.112-0.048 0.661 0.45 1.235 1.112 1.282 5.667 0.406 10.675 1.271 14.884 2.571 0.118 0.036 0.237 0.054 0.355 0.054 0.512 0 0.987-0.331 1.146-0.846C44.753 60.14 44.398 59.468 43.765 59.272z" fill="#da9323" data-fill-palette-color="accent"></path><path d="M56.588 39.211c0.117 0 0.237-0.018 0.355-0.054 4.21-1.3 9.218-2.165 14.884-2.571 0.661-0.047 1.159-0.622 1.112-1.283-0.047-0.661-0.619-1.148-1.283-1.111-5.849 0.419-11.037 1.318-15.421 2.671-0.633 0.196-0.988 0.868-0.793 1.501C55.602 38.88 56.076 39.211 56.588 39.211z" fill="#da9323" data-fill-palette-color="accent"></path><path d="M56.588 46.68c0.117 0 0.237-0.018 0.355-0.054 4.21-1.3 9.218-2.165 14.884-2.571 0.661-0.047 1.159-0.622 1.112-1.282-0.047-0.661-0.619-1.144-1.283-1.112-5.849 0.419-11.037 1.318-15.421 2.672-0.633 0.196-0.988 0.868-0.793 1.501C55.602 46.349 56.076 46.68 56.588 46.68z" fill="#da9323" data-fill-palette-color="accent"></path><path d="M56.588 54.15c0.117 0 0.237-0.018 0.355-0.054 4.21-1.3 9.218-2.165 14.884-2.571 0.661-0.047 1.159-0.622 1.112-1.283-0.047-0.662-0.619-1.141-1.283-1.111-5.849 0.419-11.037 1.318-15.421 2.671-0.633 0.196-0.988 0.868-0.793 1.501C55.602 53.819 56.076 54.15 56.588 54.15z" fill="#da9323" data-fill-palette-color="accent"></path><path d="M71.656 56.6c-5.849 0.419-11.037 1.318-15.421 2.672-0.633 0.196-0.988 0.868-0.793 1.501 0.159 0.516 0.634 0.847 1.146 0.846 0.117 0 0.237-0.018 0.355-0.054 4.21-1.3 9.218-2.165 14.884-2.571 0.661-0.047 1.159-0.622 1.112-1.282C72.891 57.051 72.32 56.561 71.656 56.6z" fill="#da9323" data-fill-palette-color="accent"></path></g></g></svg></g></svg></g></svg></g></svg></g></svg></g></svg></g><defs></defs></svg><rect width="95.481" height="70.05437578131763" fill="none" stroke="none" visibility="hidden"></rect></g></svg></g></svg>