<svg xmlns="http://www.w3.org/2000/svg" version="1.1" xmlns:xlink="http://www.w3.org/1999/xlink" xmlns:svgjs="http://svgjs.dev/svgjs" width="2000" height="494" viewBox="0 0 2000 494"><g transform="matrix(1,0,0,1,-1.2121212121212466,0.4529010067086574)"><svg viewBox="0 0 396 98" data-background-color="#ffffff" preserveAspectRatio="xMidYMid meet" height="494" width="2000" xmlns="http://www.w3.org/2000/svg" xmlns:xlink="http://www.w3.org/1999/xlink"><g id="tight-bounds" transform="matrix(1,0,0,1,0.2400000000000091,-0.08984675841588796)"><svg viewBox="0 0 395.52 98.17960091820314" height="98.17960091820314" width="395.52"><g><svg viewBox="0 0 562.1090743223672 139.53186839975373" height="98.17960091820314" width="395.52"><g transform="matrix(1,0,0,1,166.58907432236717,41.11286704924166)"><svg viewBox="0 0 395.52 57.30613430127042" height="57.30613430127042" width="395.52"><g id="textblocktransform"><svg viewBox="0 0 395.52 57.30613430127042" height="57.30613430127042" width="395.52" id="textblock"><g><svg viewBox="0 0 395.52 57.30613430127042" height="57.30613430127042" width="395.52"><g transform="matrix(1,0,0,1,0,0)"><svg width="395.52" viewBox="2.05 -36.7 331.27 47.900000000000006" height="57.30613430127042" data-palette-color="#da9323"><g class="wordmark-text-0" data-fill-palette-color="primary" id="text-0"><path d="M11.85-1L11.85-1Q9.45 0.3 4.85 0.3L4.85 0.3Q3.4 0.3 2.05 0.1L2.05 0.1Q2.05-2.55 4.83-13.8 7.6-25.05 7.6-28.95L7.6-28.95Q7.6-29.95 7.1-31.08 6.6-32.2 6.1-32.8L6.1-32.8 5.55-33.45 5.75-34.45Q9.3-35.5 16.9-35.5L16.9-35.5Q17.6-34.1 17.6-31.95 17.6-29.8 15.5-20.05L15.5-20.05 15.8-20.05Q19.4-20.05 21.23-23.33 23.05-26.6 24.05-34.15L24.05-34.15Q28.5-35.5 32.85-35.5L32.85-35.5Q32.95-35.1 32.9-33.33 32.85-31.55 31.98-28.6 31.1-25.65 28.85-22.53 26.6-19.4 23.35-17.75L23.35-17.75Q27.15-4.65 29.25-4.65L29.25-4.65Q30.05-4.65 31.8-5.25L31.8-5.25 32.35-5.45 33.55-2.7Q28.9 0.6 24.15 0.6 19.4 0.6 17.9-4.3L17.9-4.3Q16.4-9.3 15.65-16.05L15.65-16.05 14.6-16.05Q11.85-3.85 11.85-1ZM35.2 0.3L35.2 0.3 34.35 0.3Q34.35-2.8 35.77-9.1 37.2-15.4 37.2-16.35 37.2-17.3 36.75-18.2 36.3-19.1 35.85-19.55L35.85-19.55 35.4-20 35.5-20.75Q38.45-21.7 45.8-21.7L45.8-21.7Q46.3-20.55 46.5-19.3L46.5-19.3Q51.05-22.1 54.15-22.1L54.15-22.1Q56.25-22.1 57.45-20.73 58.65-19.35 58.65-17.43 58.65-15.5 57.55-11.25 56.45-7 56.45-5.73 56.45-4.45 56.8-4.45L56.8-4.45 59.45-5.15 60.35-2.65Q58.75-1.45 56.17-0.43 53.6 0.6 51.45 0.6L51.45 0.6Q47.2 0.6 47.2-3.8L47.2-3.8Q47.2-5.7 48.25-10 49.3-14.3 49.3-15.38 49.3-16.45 48.6-16.45L48.6-16.45Q47.7-16.45 46.2-15.45L46.2-15.45Q46-14.55 45.2-11.1L45.2-11.1Q43.6-3.85 43.6-0.65L43.6-0.65Q41.15 0.3 35.2 0.3ZM69.7 0.6L69.7 0.6Q65.8 0.6 63.55-1.88 61.3-4.35 61.3-8.85L61.3-8.85Q61.3-14.35 64.55-18.18 67.8-22 73.1-22L73.1-22 75.35-21.8Q76.55-22.15 77.6-22.15L77.6-22.15Q80.1-22.15 81.17-20.45 82.25-18.75 82.4-15.6L82.4-15.6Q84.5-15.7 86.4-16.25L86.4-16.25 87.1-16.45Q87.45-16.1 87.6-14.35L87.6-14.35 87.65-13.8Q85.4-12.65 82.15-12L82.15-12Q81.05-6.7 77.8-3.05 74.55 0.6 69.7 0.6ZM70.7-9.05L70.7-9.05Q70.7-4.4 73.05-4.4L73.05-4.4Q74.7-4.4 76.42-6.5 78.15-8.6 78.8-11.6L78.8-11.6Q73.7-11.6 73.7-16.5L73.7-16.5Q73.7-17.35 73.85-18.25L73.85-18.25Q73.35-18.25 73.1-18.1L73.1-18.1Q72.25-17.2 71.47-14.48 70.7-11.75 70.7-9.05ZM85.04-5.45L85.04-5.45 85.54-16.45Q85.54-17.5 85.24-18.28 84.94-19.05 83.79-20.4L83.79-20.4 83.94-21.2Q87.74-22.15 90.24-22.15 92.74-22.15 93.82-20.95 94.89-19.75 94.89-17.63 94.89-15.5 94.14-11.4 93.39-7.3 93.39-5.88 93.39-4.45 94.19-4.45L94.19-4.45Q95.29-4.45 96.94-5.75L96.94-5.75Q96.99-6.6 97.39-10.65 97.79-14.7 97.79-16.68 97.79-18.65 97.49-20.15L97.49-20.15Q98.64-20.75 101.49-21.25 104.34-21.75 106.29-21.75L106.29-21.75Q106.74-20.85 106.74-18.93 106.74-17 105.89-12.23 105.04-7.45 105.04-5.98 105.04-4.5 105.84-4.5L105.84-4.5Q107.04-4.5 108.94-6.88 110.84-9.25 111.44-11.2L111.44-11.2 107.79-14.8Q107.99-16.85 108.69-18.68 109.39-20.5 109.99-21.3L109.99-21.3 110.54-22.1Q116.59-22.1 116.59-17.2L116.59-17.2Q116.59-14.85 115.32-11.75 114.04-8.65 112.09-5.93 110.14-3.2 107.44-1.3 104.74 0.6 102.19 0.6L102.19 0.6Q98.64 0.6 97.34-2.45L97.34-2.45Q93.69 0.55 89.84 0.55L89.84 0.55Q87.54 0.55 86.29-0.8 85.04-2.15 85.04-5.45ZM130.59-2.8Q128.99-1.4 126.39-0.4 123.79 0.6 121.67 0.6 119.54 0.6 118.19-0.63 116.84-1.85 116.84-4.15 116.84-6.45 119.37-16.98 121.89-27.5 121.89-32.6L121.89-32.6Q121.89-33.7 121.59-35.4L121.59-35.4Q126.29-36.7 130.69-36.7L130.69-36.7Q131.14-35.9 131.14-34.1L131.14-34.1Q131.14-30.7 128.62-19.28 126.09-7.85 126.09-6.1 126.09-4.35 126.69-4.35L126.69-4.35Q127.19-4.35 128.84-5L128.84-5 129.39-5.25 130.59-2.8ZM131.44-9.05L131.44-9.05Q131.44-15.25 135.21-18.7 138.99-22.15 144.54-22.15L144.54-22.15Q148.39-22.15 150.71-20.48 153.04-18.8 153.04-16L153.04-16Q153.04-13.95 151.79-12.35 150.54-10.75 148.74-9.9L148.74-9.9Q144.94-8.2 142.14-7.85L142.14-7.85 140.89-7.7Q141.44-4.4 144.19-4.4L144.19-4.4Q145.39-4.4 146.84-4.93 148.29-5.45 149.14-6L149.14-6 149.99-6.5 151.59-4.35Q151.59-4.35 151.04-3.8L151.04-3.8Q150.74-3.5 149.61-2.63 148.49-1.75 147.26-1.1 146.04-0.45 144.14 0.08 142.24 0.6 140.34 0.6L140.34 0.6Q136.09 0.6 133.76-1.88 131.44-4.35 131.44-9.05ZM140.69-11Q142.14-11.2 143.59-13.38 145.04-15.55 145.04-17.03 145.04-18.5 144.19-18.5L144.19-18.5Q142.94-18.5 141.89-16.55 140.84-14.6 140.69-11L140.69-11ZM171.09 0.6L171.09 0.6Q167.99 0.6 167.09-1.8L167.09-1.8Q163.29 0.6 160.31 0.6 157.34 0.6 155.51-1.43 153.69-3.45 153.69-8L153.69-8Q153.69-13.95 156.71-18.05 159.74-22.15 164.54-22.15L164.54-22.15Q166.89-22.15 169.24-21.05L169.24-21.05Q171.09-29.5 171.09-33.2L171.09-33.2Q171.09-34.3 170.94-35.4L170.94-35.4Q175.59-36.7 179.89-36.7L179.89-36.7Q180.29-36.05 180.29-33.63 180.29-31.2 178.01-20.6 175.74-10 175.74-6.4L175.74-6.4Q175.74-4.5 176.39-4.5L176.39-4.5 178.54-5.2 179.44-2.65Q175.04 0.6 171.09 0.6ZM164.54-4.45L164.54-4.45Q165.44-4.45 166.54-5.05L166.54-5.05 166.54-5.1Q166.74-9.15 168.49-17.85L168.49-17.85Q167.49-18.15 167.04-18.15L167.04-18.15Q165.99-18.15 165.19-17.1 164.39-16.05 163.94-14.4L163.94-14.4Q163.09-11 163.09-7.73 163.09-4.45 164.54-4.45ZM192.88 0.45L193.38-2.15Q189.88-0.25 187.16-0.25 184.43-0.25 182.61-2.43 180.78-4.6 180.78-8.9L180.78-8.9Q180.78-14.65 183.91-18.4 187.03-22.15 191.38-22.15L191.38-22.15Q193.48-22.15 196.13-21L196.13-21Q199.23-21.95 203.18-21.95L203.18-21.95 204.03-21.95Q204.28-21.45 204.28-19.73 204.28-18 203.66-12.95 203.03-7.9 202.28-4.5L202.28-4.5Q200.68 2.75 197.31 6.98 193.93 11.2 188.83 11.2L188.83 11.2Q186.33 11.2 184.76 10.1 183.18 9 183.18 7.3 183.18 5.6 184.01 4.48 184.83 3.35 186.38 2.6L186.38 2.6Q189.03 1.3 192.88 0.45L192.88 0.45ZM193.68-18.1L193.68-18.1Q191.93-18.1 191.01-15.1 190.08-12.1 190.08-8.6 190.08-5.1 191.73-5.1L191.73-5.1Q192.43-5.1 193.78-5.8L193.78-5.8Q194.18-9.85 195.08-17.8L195.08-17.8Q194.33-18.1 193.68-18.1ZM187.98 7.5L187.98 7.5Q188.93 7.5 190.16 6.55 191.38 5.6 192.18 3.45L192.18 3.45Q186.73 4.4 186.73 6.35L186.73 6.35Q186.83 7.5 187.98 7.5ZM205.73-9.05L205.73-9.05Q205.73-15.25 209.51-18.7 213.28-22.15 218.83-22.15L218.83-22.15Q222.68-22.15 225.01-20.48 227.33-18.8 227.33-16L227.33-16Q227.33-13.95 226.08-12.35 224.83-10.75 223.03-9.9L223.03-9.9Q219.23-8.2 216.43-7.85L216.43-7.85 215.18-7.7Q215.73-4.4 218.48-4.4L218.48-4.4Q219.68-4.4 221.13-4.93 222.58-5.45 223.43-6L223.43-6 224.28-6.5 225.88-4.35Q225.88-4.35 225.33-3.8L225.33-3.8Q225.03-3.5 223.91-2.63 222.78-1.75 221.56-1.1 220.33-0.45 218.43 0.08 216.53 0.6 214.63 0.6L214.63 0.6Q210.38 0.6 208.06-1.88 205.73-4.35 205.73-9.05ZM214.98-11Q216.43-11.2 217.88-13.38 219.33-15.55 219.33-17.03 219.33-18.5 218.48-18.5L218.48-18.5Q217.23-18.5 216.18-16.55 215.13-14.6 214.98-11L214.98-11ZM250.18-9.15L250.18-9.15Q250.18-5 246.2-2.2 242.23 0.6 236.98 0.6L236.98 0.6Q232.88 0.6 230.05-1.15 227.23-2.9 227.23-4.5L227.23-4.5Q228.03-6.45 230.28-8.7 232.53-10.95 234.43-11.05L234.43-11.05Q235.68-10.5 236.75-8.33 237.83-6.15 238.48-3.3L238.48-3.3Q241.18-3.4 241.18-6.35L241.18-6.35Q241.18-8.3 239.7-11.13 238.23-13.95 236.48-16.4 234.73-18.85 233.25-21.85 231.78-24.85 231.78-27.1L231.78-27.1Q231.78-30.8 235.18-33.15 238.58-35.5 242.75-35.5 246.93-35.5 249.25-33.7 251.58-31.9 251.58-29.55L251.58-29.55Q251.58-27.6 250.78-26.43 249.98-25.25 249.5-24.63 249.03-24 248.23-23.3L248.23-23.3Q246.73-22 245.93-21.4L245.93-21.4 245.18-20.85Q248.13-17.2 249.63-12.35L249.63-12.35Q250.18-10.6 250.18-9.15ZM247.58-29.2L247.58-29.2Q247.58-31.55 244.58-31.55L244.58-31.55Q242.83-31.55 241.75-30.8 240.68-30.05 240.68-28.93 240.68-27.8 241.6-26.2 242.53-24.6 243.08-23.95L243.08-23.95Q244.28-24.55 245.93-26.15 247.58-27.75 247.58-29.2ZM270.53-17.7L270.53-17.7 266.23-18.05Q264.23-9.1 264.05-7.65 263.88-6.2 263.88-5.28 263.88-4.35 264.48-4.35L264.48-4.35Q265.18-4.35 267.13-5.25L267.13-5.25 268.33-2.85Q266.73-1.4 264.28-0.4 261.83 0.6 259.55 0.6 257.28 0.6 255.93-0.58 254.58-1.75 254.58-3.9 254.58-6.05 255.83-10.8 257.08-15.55 257.48-17.85L257.48-17.85Q256.28-17.75 253.93-17.5L253.93-17.5Q253.73-18.55 253.73-19.48 253.73-20.4 253.98-21.55L253.98-21.55 257.98-21.55Q258.03-22.2 258.03-25.9L258.03-25.9 257.93-27.95Q262.78-29.55 267.18-29.55L267.18-29.55Q267.53-28.75 267.53-26.78 267.53-24.8 266.88-21.55L266.88-21.55 271.38-21.55Q271.38-19.5 270.53-17.7ZM278.22 0.6L278.22 0.6Q274.32 0.6 272.07-1.88 269.82-4.35 269.82-8.85L269.82-8.85Q269.82-14.35 273.07-18.18 276.32-22 281.62-22L281.62-22 283.87-21.8Q285.07-22.15 286.12-22.15L286.12-22.15Q288.62-22.15 289.7-20.45 290.77-18.75 290.92-15.6L290.92-15.6Q293.02-15.7 294.92-16.25L294.92-16.25 295.62-16.45Q295.97-16.1 296.12-14.35L296.12-14.35 296.17-13.8Q293.92-12.65 290.67-12L290.67-12Q289.57-6.7 286.32-3.05 283.07 0.6 278.22 0.6ZM279.22-9.05L279.22-9.05Q279.22-4.4 281.57-4.4L281.57-4.4Q283.22-4.4 284.95-6.5 286.67-8.6 287.32-11.6L287.32-11.6Q282.22-11.6 282.22-16.5L282.22-16.5Q282.22-17.35 282.37-18.25L282.37-18.25Q281.87-18.25 281.62-18.1L281.62-18.1Q280.77-17.2 280-14.48 279.22-11.75 279.22-9.05ZM293.57 0.3L293.57 0.3 293.17 0.3Q293.02-0.4 293.02-1.88 293.02-3.35 294.25-9.53 295.47-15.7 295.47-16.53 295.47-17.35 295.02-18.23 294.57-19.1 294.12-19.55L294.12-19.55 293.67-20 293.77-20.75Q296.77-21.7 303.72-21.7L303.72-21.7Q304.37-20.45 304.52-18.75L304.52-18.75Q307.57-22.15 309.92-22.15L309.92-22.15Q312.97-22.15 313.27-17L313.27-17Q313.17-16.9 313.02-16.68 312.87-16.45 312.32-15.9 311.77-15.35 311.17-14.9L311.17-14.9Q309.47-13.75 307.57-13.55L307.57-13.55Q307.52-13.55 306.9-14.65 306.27-15.75 305.85-15.75 305.42-15.75 304.27-14.85L304.27-14.85Q304.12-13.95 303.7-11.8 303.27-9.65 303.02-8.25L303.02-8.25Q302.27-4.55 302.27-2.05L302.27-2.05 302.32-0.55Q300.12 0.3 293.57 0.3ZM311.72-9.05L311.72-9.05Q311.72-15.25 315.49-18.7 319.27-22.15 324.82-22.15L324.82-22.15Q328.67-22.15 330.99-20.48 333.32-18.8 333.32-16L333.32-16Q333.32-13.95 332.07-12.35 330.82-10.75 329.02-9.9L329.02-9.9Q325.22-8.2 322.42-7.85L322.42-7.85 321.17-7.7Q321.72-4.4 324.47-4.4L324.47-4.4Q325.67-4.4 327.12-4.93 328.57-5.45 329.42-6L329.42-6 330.27-6.5 331.87-4.35Q331.87-4.35 331.32-3.8L331.32-3.8Q331.02-3.5 329.89-2.63 328.77-1.75 327.54-1.1 326.32-0.45 324.42 0.08 322.52 0.6 320.62 0.6L320.62 0.6Q316.37 0.6 314.04-1.88 311.72-4.35 311.72-9.05ZM320.97-11Q322.42-11.2 323.87-13.38 325.32-15.55 325.32-17.03 325.32-18.5 324.47-18.5L324.47-18.5Q323.22-18.5 322.17-16.55 321.12-14.6 320.97-11L320.97-11Z" fill="#da9323" data-fill-palette-color="primary"></path></g></svg></g></svg></g></svg></g></svg></g><g><svg viewBox="0 0 139.53186839975373 139.53186839975373" height="139.53186839975373" width="139.53186839975373"><g><svg></svg></g><g id="icon-0"><svg viewBox="0 0 139.53186839975373 139.53186839975373" height="139.53186839975373" width="139.53186839975373"><g><path d="M0 69.766c0-38.531 31.235-69.766 69.766-69.766 38.531 0 69.766 31.235 69.766 69.766 0 38.531-31.235 69.766-69.766 69.766-38.531 0-69.766-31.235-69.766-69.766zM69.766 134.364c35.676 0 64.598-28.922 64.598-64.598 0-35.676-28.922-64.598-64.598-64.598-35.676 0-64.598 28.922-64.598 64.598 0 35.676 28.922 64.598 64.598 64.598z" data-fill-palette-color="accent" fill="#da9323" stroke="transparent"></path></g><g transform="matrix(1,0,0,1,29.39251648720026,40.143971966344)"><svg viewBox="0 0 80.74683542535321 59.243924467065746" height="59.243924467065746" width="80.74683542535321"><g><svg xmlns="http://www.w3.org/2000/svg" xmlns:xlink="http://www.w3.org/1999/xlink" version="1.0" x="0" y="0" viewBox="13.200200099999984 23.1665 73.59959690000001 53.99999810000001" enable-background="new 0 0 100 100" xml:space="preserve" height="59.243924467065746" width="80.74683542535321" class="icon-z$-0" data-fill-palette-color="accent" id="z$-0"><g fill="#da9323" data-fill-palette-color="accent"><g fill="#da9323" data-fill-palette-color="accent"><path d="M85.6 28.167h-4.8c-0.033 0-0.061 0.016-0.094 0.019v-3.819c0-0.663-0.537-1.2-1.2-1.2-18.494 0-27.115 4.129-29.506 5.528-2.391-1.399-11.012-5.529-29.506-5.528-0.663 0-1.2 0.537-1.2 1.2v3.819c-0.033-0.003-0.06-0.019-0.094-0.019h-4.8c-0.663 0-1.2 0.537-1.2 1.2v46.6c0 0.663 0.537 1.2 1.2 1.199h21.2c0.663 0 1.2-0.537 1.2-1.199 0-0.663-0.537-1.2-1.2-1.2H15.6V30.567h3.6c0.033 0 0.061-0.016 0.094-0.019v38.471c0 0.663 0.537 1.2 1.2 1.2 20.808 0 28.675 5.429 28.801 5.518 0.041 0.029 0.087 0.042 0.129 0.066 0.023 0.013 0.043 0.03 0.067 0.041 0.029 0.014 0.057 0.026 0.088 0.037 0.137 0.052 0.278 0.085 0.42 0.085l0 0c0 0 0 0 0.001 0 0.014 0 0.026-0.008 0.04-0.008 0.128-0.004 0.254-0.031 0.377-0.076 0.029-0.011 0.057-0.02 0.084-0.033 0.031-0.014 0.056-0.035 0.086-0.052 0.039-0.022 0.081-0.033 0.117-0.059 0.077-0.055 7.928-5.519 28.802-5.519 0.663 0 1.2-0.537 1.2-1.2V30.548c0.033 0.003 0.06 0.019 0.094 0.019h3.6v44.2H62c-0.663 0-1.2 0.537-1.2 1.199 0 0.663 0.537 1.2 1.2 1.2h23.6c0.663 0 1.2-0.537 1.2-1.2V29.367C86.8 28.704 86.263 28.167 85.6 28.167zM21.694 25.572c17.172 0.176 25.156 4.082 27.106 5.208v41.927c-3.418-1.685-11.697-4.731-27.106-4.882V25.572zM78.306 67.825c-15.409 0.151-23.688 3.197-27.106 4.882V30.775c1.936-1.132 9.837-5.029 27.106-5.203V67.825z" fill="#da9323" data-fill-palette-color="accent"></path><path d="M28.173 36.586c5.667 0.406 10.675 1.271 14.884 2.571 0.118 0.036 0.237 0.054 0.355 0.054 0.512 0 0.987-0.331 1.146-0.847 0.196-0.633-0.159-1.305-0.793-1.501-4.384-1.354-9.573-2.253-15.421-2.671-0.653-0.039-1.236 0.451-1.283 1.111C27.014 35.964 27.511 36.538 28.173 36.586z" fill="#da9323" data-fill-palette-color="accent"></path><path d="M43.765 44.333c-4.384-1.354-9.573-2.253-15.421-2.672-0.653-0.035-1.236 0.451-1.283 1.112-0.048 0.661 0.45 1.235 1.112 1.282 5.667 0.406 10.675 1.271 14.884 2.571 0.118 0.036 0.237 0.054 0.355 0.054 0.512 0 0.987-0.331 1.146-0.846C44.753 45.201 44.398 44.529 43.765 44.333z" fill="#da9323" data-fill-palette-color="accent"></path><path d="M43.765 51.802c-4.384-1.353-9.573-2.253-15.421-2.671-0.653-0.032-1.236 0.45-1.283 1.111-0.048 0.661 0.45 1.235 1.112 1.283 5.667 0.406 10.675 1.271 14.884 2.571 0.118 0.036 0.237 0.054 0.355 0.054 0.512 0 0.987-0.331 1.146-0.847C44.753 52.67 44.398 51.998 43.765 51.802z" fill="#da9323" data-fill-palette-color="accent"></path><path d="M43.765 59.272c-4.384-1.353-9.573-2.253-15.421-2.672-0.653-0.041-1.236 0.451-1.283 1.112-0.048 0.661 0.45 1.235 1.112 1.282 5.667 0.406 10.675 1.271 14.884 2.571 0.118 0.036 0.237 0.054 0.355 0.054 0.512 0 0.987-0.331 1.146-0.846C44.753 60.14 44.398 59.468 43.765 59.272z" fill="#da9323" data-fill-palette-color="accent"></path><path d="M56.588 39.211c0.117 0 0.237-0.018 0.355-0.054 4.21-1.3 9.218-2.165 14.884-2.571 0.661-0.047 1.159-0.622 1.112-1.283-0.047-0.661-0.619-1.148-1.283-1.111-5.849 0.419-11.037 1.318-15.421 2.671-0.633 0.196-0.988 0.868-0.793 1.501C55.602 38.88 56.076 39.211 56.588 39.211z" fill="#da9323" data-fill-palette-color="accent"></path><path d="M56.588 46.68c0.117 0 0.237-0.018 0.355-0.054 4.21-1.3 9.218-2.165 14.884-2.571 0.661-0.047 1.159-0.622 1.112-1.282-0.047-0.661-0.619-1.144-1.283-1.112-5.849 0.419-11.037 1.318-15.421 2.672-0.633 0.196-0.988 0.868-0.793 1.501C55.602 46.349 56.076 46.68 56.588 46.68z" fill="#da9323" data-fill-palette-color="accent"></path><path d="M56.588 54.15c0.117 0 0.237-0.018 0.355-0.054 4.21-1.3 9.218-2.165 14.884-2.571 0.661-0.047 1.159-0.622 1.112-1.283-0.047-0.662-0.619-1.141-1.283-1.111-5.849 0.419-11.037 1.318-15.421 2.671-0.633 0.196-0.988 0.868-0.793 1.501C55.602 53.819 56.076 54.15 56.588 54.15z" fill="#da9323" data-fill-palette-color="accent"></path><path d="M71.656 56.6c-5.849 0.419-11.037 1.318-15.421 2.672-0.633 0.196-0.988 0.868-0.793 1.501 0.159 0.516 0.634 0.847 1.146 0.846 0.117 0 0.237-0.018 0.355-0.054 4.21-1.3 9.218-2.165 14.884-2.571 0.661-0.047 1.159-0.622 1.112-1.282C72.891 57.051 72.32 56.561 71.656 56.6z" fill="#da9323" data-fill-palette-color="accent"></path></g></g></svg></g></svg></g></svg></g></svg></g></svg></g><defs></defs></svg><rect width="395.52" height="98.17960091820314" fill="none" stroke="none" visibility="hidden"></rect></g></svg></g></svg>